<svg width="21" height="15" viewBox="0 0 21 15" fill="none" xmlns="http://www.w3.org/2000/svg">
<path d="M10.833 9.00614C10.5984 9.00654 10.3699 8.9317 10.181 8.79262L1.27792 2.22288C1.16208 2.13733 1.06424 2.02981 0.989988 1.90647C0.915732 1.78313 0.866516 1.64638 0.845148 1.50404C0.801994 1.21655 0.874893 0.923717 1.04781 0.689945C1.22073 0.456173 1.47949 0.300615 1.76719 0.257493C2.05488 0.21437 2.34794 0.287216 2.58188 0.460004L10.833 6.54248L19.0841 0.460004C19.2 0.374448 19.3315 0.312529 19.4713 0.277782C19.6111 0.243035 19.7564 0.236141 19.8988 0.257493C20.0413 0.278844 20.1781 0.328025 20.3016 0.402225C20.425 0.476425 20.5326 0.574193 20.6182 0.689945C20.7038 0.805697 20.7658 0.937168 20.8006 1.07685C20.8353 1.21653 20.8422 1.36169 20.8209 1.50404C20.7995 1.64638 20.7503 1.78313 20.676 1.90647C20.6018 2.02981 20.5039 2.13733 20.3881 2.22288L11.485 8.79262C11.2961 8.9317 11.0676 9.00654 10.833 9.00614Z" fill="white"/>
<path d="M10.833 14.7547C10.5984 14.7551 10.3699 14.6802 10.181 14.5412L1.27792 7.97142C1.04398 7.79863 0.888302 7.54005 0.845148 7.25257C0.801994 6.96509 0.874893 6.67225 1.04781 6.43848C1.22073 6.20471 1.47949 6.04915 1.76719 6.00603C2.05488 5.96291 2.34794 6.03575 2.58188 6.20854L10.833 12.291L19.0841 6.20854C19.3181 6.03575 19.6111 5.96291 19.8988 6.00603C20.1865 6.04915 20.4453 6.20471 20.6182 6.43848C20.7911 6.67225 20.864 6.96509 20.8209 7.25257C20.7777 7.54005 20.622 7.79863 20.3881 7.97142L11.485 14.5412C11.2961 14.6802 11.0676 14.7551 10.833 14.7547Z" fill="white"/>
</svg>
