<svg width="20" height="15" viewBox="0 0 20 15" fill="none" xmlns="http://www.w3.org/2000/svg">
<g clip-path="url(#clip0_127008_7785)">
<path d="M18.9043 14.7549C18.6696 14.7553 18.4411 14.6804 18.2522 14.5414L10.0001 8.45818L1.74809 14.5414C1.63224 14.6269 1.50066 14.6888 1.36086 14.7236C1.22106 14.7583 1.07577 14.7652 0.933305 14.7439C0.790837 14.7225 0.653973 14.6733 0.530528 14.5991C0.407083 14.5249 0.299474 14.4271 0.213845 14.3114C0.128216 14.1956 0.0662437 14.0641 0.0314671 13.9244C-0.00330956 13.7847 -0.0102098 13.6396 0.0111604 13.4972C0.0543195 13.2097 0.21001 12.9511 0.443982 12.7783L9.34809 6.20779C9.53679 6.0682 9.76536 5.99286 10.0001 5.99286C10.2349 5.99286 10.4635 6.0682 10.6522 6.20779L19.5563 12.7783C19.7422 12.9152 19.8801 13.1073 19.9503 13.3272C20.0204 13.5471 20.0193 13.7835 19.9469 14.0026C19.8746 14.2218 19.7349 14.4126 19.5476 14.5477C19.3604 14.6828 19.1352 14.7553 18.9043 14.7549Z" fill="white"/>
<path d="M18.9043 9.00577C18.6696 9.00618 18.4411 8.93133 18.2522 8.79223L10.0002 2.70907L1.7481 8.79223C1.51412 8.96504 1.22104 9.0379 0.93331 8.99477C0.645583 8.95164 0.386785 8.79607 0.213849 8.56227C0.0409137 8.32847 -0.0319941 8.0356 0.011165 7.74808C0.054324 7.46057 0.210015 7.20196 0.443986 7.02916L9.3481 0.45868C9.5368 0.319089 9.76537 0.243744 10.0002 0.243744C10.2349 0.243744 10.4635 0.319089 10.6522 0.45868L19.5563 7.02916C19.7422 7.16607 19.8801 7.35819 19.9503 7.57806C20.0204 7.79794 20.0193 8.03435 19.947 8.25353C19.8746 8.47271 19.7349 8.66347 19.5476 8.79856C19.3604 8.93365 19.1352 9.00617 18.9043 9.00577Z" fill="white"/>
</g>
<defs>
<clipPath id="clip0_127008_7785">
<rect width="20" height="14.5098" fill="white" transform="translate(0 0.245087)"/>
</clipPath>
</defs>
</svg>
